HIERARCHY
ROOT Hips
{
	OFFSET -0.001795 -0.223333 0.028219
	CHANNELS 6 Xposition Yposition Zposition Zrotation Yrotation Xrotation 
	JOINT LeftUpLeg
	{
		OFFSET 0.069520 -0.091406 -0.006815
		CHANNELS 3 Zrotation Yrotation Xrotation
		JOINT LeftLeg
		{
			OFFSET 0.034277 -0.375199 -0.004496
			CHANNELS 3 Zrotation Yrotation Xrotation
			JOINT LeftFoot
			{
				OFFSET -0.013596 -0.397961 -0.043693
				CHANNELS 3 Zrotation Yrotation Xrotation
				JOINT LeftToe
				{
					OFFSET 0.026358 -0.055791 0.119288
					CHANNELS 3 Zrotation Yrotation Xrotation
					End Site
					{
						OFFSET 0.000000 0.000000 0.000000
					}
				}
			}
		}
	}
	JOINT RightUpLeg
	{
		OFFSET -0.067670 -0.090522 -0.004320
		CHANNELS 3 Zrotation Yrotation Xrotation
		JOINT RightLeg
		{
			OFFSET -0.038290 -0.382569 -0.008850
			CHANNELS 3 Zrotation Yrotation Xrotation
			JOINT RightFoot
			{
				OFFSET 0.015774 -0.398415 -0.042312
				CHANNELS 3 Zrotation Yrotation Xrotation
				JOINT RightToe
				{
					OFFSET -0.025372 -0.048144 0.123348
					CHANNELS 3 Zrotation Yrotation Xrotation
					End Site
					{
						OFFSET 0.000000 0.000000 0.000000
					}
				}
			}
		}
	}
	JOINT Spine
	{
		OFFSET -0.002533 0.108963 -0.026696
		CHANNELS 3 Zrotation Yrotation Xrotation
		JOINT Spine1
		{
			OFFSET 0.005487 0.135180 0.001092
			CHANNELS 3 Zrotation Yrotation Xrotation
			JOINT Spine2
			{
				OFFSET 0.001457 0.052922 0.025425
				CHANNELS 3 Zrotation Yrotation Xrotation
				JOINT Neck
				{
					OFFSET -0.002778 0.213870 -0.042857
					CHANNELS 3 Zrotation Yrotation Xrotation
					JOINT Head
					{
						OFFSET 0.005152 0.064970 0.051349
						CHANNELS 3 Zrotation Yrotation Xrotation
						End Site
						{
							OFFSET 0.000000 0.000000 0.000000
						}
					}
				}
				JOINT LeftShoulder
				{
					OFFSET 0.078845 0.121749 -0.034090
					CHANNELS 3 Zrotation Yrotation Xrotation
					JOINT LeftArm
					{
						OFFSET 0.090977 0.030469 -0.008868
						CHANNELS 3 Zrotation Yrotation Xrotation
						JOINT LeftForeArm
						{
							OFFSET 0.259612 -0.012772 -0.027456
							CHANNELS 3 Zrotation Yrotation Xrotation
							JOINT LeftHand
							{
								OFFSET 0.249234 0.008986 -0.001171
								CHANNELS 3 Zrotation Yrotation Xrotation
								End Site
								{
									OFFSET 0.000000 0.000000 0.000000
								}
							}
						}
					}
				}
				JOINT RightShoulder
				{
					OFFSET -0.081759 0.118833 -0.038615
					CHANNELS 3 Zrotation Yrotation Xrotation
					JOINT RightArm
					{
						OFFSET -0.096012 0.032551 -0.009143
						CHANNELS 3 Zrotation Yrotation Xrotation
						JOINT RightForeArm
						{
							OFFSET -0.253742 -0.013329 -0.021401
							CHANNELS 3 Zrotation Yrotation Xrotation
							JOINT RightHand
							{
								OFFSET -0.255298 0.007772 -0.005559
								CHANNELS 3 Zrotation Yrotation Xrotation
								End Site
								{
									OFFSET 0.000000 0.000000 0.000000
								}
							}
						}
					}
				}
			}
		}
	}
}
MOTION
Frames: 6
Frame Time: 0.050000
0.000000 0.933125 0.000000 -2.049632 -22.383615 0.794677 2.280044 -0.547596 -17.992860 -3.344163 0.777750 7.856928 5.084454 10.363820 16.134440 0.000000 0.000000 0.000000 4.518610 -0.379743 1.329310 3.687114 -0.019494 6.358257 -2.981626 -7.388050 0.990233 0.000000 0.000000 0.000000 -3.449096 0.729098 20.681701 2.577242 -0.544159 -22.802996 0.458835 8.659551 28.225732 0.685068 0.167714 -18.918493 0.000000 0.000000 0.000000 -30.556217 -8.527166 6.114415 -44.664957 -15.105417 -2.953731 -5.322364 -29.345462 3.035242 0.000000 0.000000 0.000000 26.428148 13.222022 4.774346 55.846195 7.854456 -3.996225 4.950568 24.416034 1.888015 0.000000 0.000000 0.000000 
-0.008276 0.930014 0.011061 -2.468498 -20.673779 1.341977 3.627354 -0.340148 -18.614869 -4.952869 1.211091 9.370459 4.376101 9.460185 13.843537 0.000000 0.000000 0.000000 5.868595 -0.393930 0.892724 3.069283 0.094925 7.904096 -3.963646 -9.181246 0.297329 0.000000 0.000000 0.000000 -4.743196 0.963840 20.951502 3.468854 -0.734178 -22.419482 1.247138 8.887537 27.436004 -0.191185 0.942268 -17.633037 0.000000 0.000000 0.000000 -31.888873 -7.860193 5.052337 -43.783079 -14.062537 -3.062453 -7.482997 -29.804290 3.587880 0.000000 0.000000 0.000000 24.775756 12.734348 4.977455 56.776129 9.085730 -3.570773 6.038255 26.286228 2.341207 0.000000 0.000000 0.000000 
-0.017223 0.929116 0.024710 -2.073147 -18.827220 0.808191 2.294695 -0.686228 -17.652264 -3.329024 0.788908 10.030810 3.741551 8.549433 11.894014 0.000000 0.000000 0.000000 4.954315 -0.232911 0.028107 4.952840 0.018467 12.464518 -4.445813 -10.183805 -0.094318 0.000000 0.000000 0.000000 -4.874913 0.950954 21.535143 2.638426 -0.467918 -22.945251 1.756871 8.432805 27.248903 -1.162640 1.724687 -17.435699 0.000000 0.000000 0.000000 -31.555438 -7.739314 4.593177 -44.703570 -12.705454 -3.433166 -6.616359 -27.933017 3.094794 0.000000 0.000000 0.000000 23.680515 12.750130 5.220439 56.905280 10.996155 -2.716970 5.732009 26.563087 2.325705 0.000000 0.000000 0.000000 
-0.027003 0.928394 0.041403 -1.885041 -19.188137 0.328745 3.162685 -0.505845 -16.083883 -4.722769 1.178146 10.404602 3.993368 8.871221 10.157958 0.000000 0.000000 0.000000 4.651068 0.063594 -2.163380 6.057003 0.227563 19.475700 -4.725776 -11.343789 0.873140 0.000000 0.000000 0.000000 -6.278616 1.170865 20.347208 3.449396 -0.649076 -23.077625 1.775083 9.904606 28.992624 -2.145469 2.627065 -17.244976 0.000000 0.000000 0.000000 -32.217928 -7.603000 4.099822 -44.599534 -11.588164 -3.850332 -6.130245 -27.069257 2.849266 0.000000 0.000000 0.000000 24.436352 15.058946 7.092837 56.337934 12.344269 -2.297952 5.992646 27.636295 2.556107 0.000000 0.000000 0.000000 
-0.037738 0.928369 0.060066 -1.704094 -17.726032 -1.309929 2.486144 -0.624578 -13.980799 -3.658681 0.953158 12.086274 3.466899 7.980548 8.056932 0.000000 0.000000 0.000000 2.367981 0.579267 -5.862760 11.301089 -0.696685 30.125588 -4.463959 -13.663402 8.207709 0.000000 0.000000 0.000000 -6.908374 1.190162 20.117146 3.478720 -0.791851 -21.182437 1.361248 10.769856 27.984252 -1.595173 2.492864 -16.504983 0.000000 0.000000 0.000000 -31.375669 -8.120010 3.605855 -44.667102 -9.511718 -4.250347 -6.100718 -27.669277 2.843265 0.000000 0.000000 0.000000 23.722499 14.108472 7.054960 56.386368 13.823256 -1.633374 8.212308 28.377972 3.251035 0.000000 0.000000 0.000000 
-0.049623 0.929886 0.079243 -1.797817 -16.191873 -2.597990 3.132456 -0.497729 -11.814832 -4.133578 1.083916 13.149349 2.738604 6.689575 6.733862 0.000000 0.000000 0.000000 -1.228621 1.111409 -11.051914 17.808267 -3.159836 40.128230 -1.774990 -12.814205 23.839089 0.000000 0.000000 0.000000 -7.364102 1.188951 20.169704 3.561109 -0.868671 -20.183314 1.484330 10.710062 27.812694 -2.185718 3.066155 -17.064306 0.000000 0.000000 0.000000 -31.869657 -8.114965 3.159713 -44.504237 -8.242516 -4.532941 -5.390121 -28.452307 2.714739 0.000000 0.000000 0.000000 22.167708 14.794598 7.554004 57.372758 14.402104 -1.321211 9.395307 31.295627 4.033368 0.000000 0.000000 0.000000 
